<svg xmlns="http://www.w3.org/2000/svg" viewBox="0 0 2974.19 2498.02" fill="#010101">
  <path d="M1487.09,552.59c-33.97-.01-86.84,2.5-147.7,28.75,0,0-86.06,38.11-140.08,112.11-14.22,19.48-35.12,52.95-38.5,58.37-39.44,63.09-54.45,98.13-87.6,109.76-6.37,2.28-24.52,8.56-39.68,0-4.8-2.68-8.57-6.53-12.81-12.81-15.56-22.94-17.28-48.4-17.52-51.38-2.28-32.37-8.02-64.5-10.53-96.87-4.56-59.4-22.16-104.18-30.33-124.92-16.89-42.9-37.01-73.54-63.09-113.29-26.64-40.7-33.94-44.78-54.84-80.53-16.97-28.99-31.82-54.29-43.21-89.88-19.64-61.52-16.34-114.32-13.98-152.97,2.36-37.56,8.25-64.98,10.53-74.72C807.58,21.55,819.21.73,817.64.02c-4-1.88-112.5,124.06-112.11,286.06,0,26.95.24,114.24,46.67,198.46,25.22,45.8,58.37,102.76,58.37,102.76,23.57,40.54,36.53,61.67,42.03,95.77,7.93,49.5-8.1,75.11-11.71,80.53-4.48,6.76-14.61,21.92-32.68,25.69-15.56,3.22-28.75-3.69-35.04-6.99-16.5-8.64-24.43-20.9-33.86-33.86-13.83-19.01-31.11-35.28-45.57-53.74-43.45-55.54-128.22-95.14-131.91-96.87-94.68-43.37-179.92-35.67-197.36-33.86-17.52,1.8-61.04,7.7-114.39,31.5C85.8,668.69-5.42,837.21.24,841.85v-.24c2.12,1.8,16.73-22.16,58.37-56.02,38.1-31.03,125.86-102.37,253.37-103.94,27.49-.31,110.22,1.96,190.28,52.56,43.68,27.66,71.73,60.26,99.23,92.24,19.48,22.71,45.57,59.87,96.87,133.09,37.09,52.95,31.9,46.67,37.4,53.74,24.43,31.67,90.03,116.59,199.63,152.97,44.54,14.85,79.66,16.03,122.56,17.52,79.27,2.75,144.09-11.47,201.99-24.51,18.91-4.28,31.18-7.54,40.68-10.34,12.24-3.6,18.12-5.95,31.09-9.62,13.97-3.95,25.58-6.52,33.35-8.09,34.03-5.95,75.21-11.59,121.97-11.59,46.79,0,87.99,5.63,122.04,11.59,52.17,11.08,44.39,14.3,105.12,28.05,57.9,13.04,122.72,27.26,201.99,24.51,42.89-1.49,78.01-2.67,122.56-17.52,109.59-36.38,175.2-121.31,199.63-152.97,5.5-7.07.32-.79,37.4-53.74,51.3-73.22,77.39-110.39,96.87-133.09,27.5-31.98,55.55-64.58,99.23-92.24,80.05-50.6,162.78-52.87,190.28-52.56,127.51,1.57,215.27,72.91,253.37,103.94,41.64,33.86,56.25,57.83,58.37,56.02v.24h.07c5.65-4.63-85.56-173.16-249.84-246.38-53.34-23.8-96.87-29.69-114.39-31.5-17.45-1.81-102.69-9.51-197.36,33.86-3.69,1.73-88.46,41.32-131.91,96.87-14.46,18.46-31.74,34.73-45.57,53.74-9.43,12.96-17.36,25.22-33.86,33.86-6.28,3.3-19.48,10.21-35.04,6.99-18.07-3.77-28.2-18.93-32.68-25.69-3.62-5.42-19.65-31.03-11.71-80.53,5.5-34.1,18.46-55.23,42.03-95.77,0,0,33.15-56.96,58.37-102.76,46.43-84.23,46.67-171.51,46.67-198.46.39-162.01-108.1-287.95-112.11-286.06-1.57.71,10.06,21.53,19.88,64.19,2.28,9.75,8.17,37.17,10.53,74.72,2.36,38.66,5.66,91.45-13.98,152.97-11.39,35.59-26.24,60.89-43.21,89.88-20.9,35.75-28.21,39.83-54.84,80.53-26.09,39.75-46.2,70.39-63.09,113.29-8.18,20.74-25.77,65.52-30.33,124.92-2.52,32.37-8.25,64.5-10.53,96.87-.24,2.98-1.96,28.44-17.52,51.38-4.25,6.29-8.02,10.14-12.81,12.81-15.17,8.56-33.32,2.28-39.68,0-33.15-11.63-48.16-46.67-87.6-109.76-.19-.31-.45-.72-.75-1.21-19.88-31.8-35.96-54.65-37.75-57.16-52.42-73.61-138.02-111.2-138.02-111.2-61.65-27.07-115.44-29.65-149.76-29.66ZM1758.46,988.76c-2.1,6.76-7.6,24.56-24.51,36.22-9.12,6.29-19.56,9.43-36.22,10.53-33.15,2.12-56.8-6.45-77.07-11.71-37.43-9.71-60.02-16.72-89.88-19.35-20.56-1.81-38.18-1.91-43.74-1.91-5.57,0-23.19.09-43.76,1.91-29.87,2.63-52.46,9.62-89.88,19.35-20.27,5.27-43.92,13.83-77.07,11.71-16.66-1.1-27.11-4.24-36.22-10.53-16.97-11.71-22.55-29.7-24.51-36.22-6.36-21.37-1.57-40.14,1.18-50.2,23.57-85.64,54.84-131.91,54.84-131.91,24.36-36.07,62.07-91.85,135.45-127.28.29-.14.58-.28.87-.42,49.98-23.91,108.23-23.91,158.21,0,.29.14.58.28.87.42,73.38,35.44,111.09,91.22,135.45,127.28,0,0,31.27,46.27,54.84,131.91,2.68,7.78,8.22,27.45,1.16,50.2Z"/>
  <path d="M1636.85,1915.76s85.6-37.59,138.02-111.2c1.79-2.51,17.87-25.37,37.75-57.16.31-.49.56-.89.75-1.21,39.44-63.09,54.45-98.13,87.6-109.76,6.36-2.28,24.51-8.56,39.68,0,4.79,2.67,8.56,6.52,12.81,12.81,15.56,22.94,17.28,48.4,17.52,51.38,2.28,32.37,8.01,64.5,10.53,96.87,4.56,59.4,22.15,104.18,30.33,124.92,16.89,42.9,37,73.54,63.09,113.29,26.63,40.7,33.94,44.78,54.84,80.53,16.97,28.99,31.82,54.29,43.21,89.88,19.64,61.52,16.34,114.31,13.98,152.97-2.36,37.55-8.25,64.97-10.53,74.72-9.82,42.66-21.45,63.48-19.88,64.19,4.01,1.89,112.5-124.05,112.11-286.06,0-26.95-.24-114.23-46.67-198.46-25.22-45.8-58.37-102.76-58.37-102.76-23.57-40.54-36.53-61.67-42.03-95.77-7.94-49.5,8.09-75.11,11.71-80.53,4.48-6.76,14.61-21.92,32.68-25.69,15.56-3.22,28.76,3.69,35.04,6.99,16.5,8.64,24.43,20.9,33.86,33.86,13.83,19.01,31.11,35.28,45.57,53.74,43.45,55.55,128.22,95.14,131.91,96.87,94.67,43.37,179.91,35.67,197.36,33.86,17.52-1.81,61.05-7.7,114.39-31.5,164.28-73.22,255.49-241.75,249.84-246.38h-.07s0,.24,0,.24c-2.12-1.81-16.73,22.16-58.37,56.02-38.1,31.03-125.86,102.37-253.37,103.94-27.5.31-110.23-1.96-190.28-52.56-43.68-27.66-71.73-60.26-99.23-92.24-19.48-22.7-45.57-59.87-96.87-133.09-37.08-52.95-31.9-46.67-37.4-53.74-24.43-31.66-90.04-116.59-199.63-152.97-44.55-14.85-79.67-16.03-122.56-17.52-79.27-2.75-144.09,11.47-201.99,24.51-60.73,13.75-52.95,16.97-105.12,28.05-34.05,5.95-75.24,11.59-122.04,11.59-46.77,0-87.94-5.64-121.97-11.59-7.77-1.57-19.38-4.14-33.35-8.09-12.98-3.67-18.85-6.02-31.09-9.62-9.5-2.79-21.77-6.06-40.68-10.34-57.9-13.04-122.72-27.26-201.99-24.51-42.9,1.49-78.02,2.67-122.56,17.52-109.6,36.38-175.2,121.3-199.63,152.97-5.5,7.07-.31.79-37.4,53.74-51.3,73.22-77.39,110.38-96.87,133.09-27.5,31.98-55.55,64.58-99.23,92.24-80.06,50.6-162.79,52.87-190.28,52.56-127.51-1.57-215.27-72.91-253.37-103.94-41.64-33.86-56.25-57.82-58.37-56.02v-.24c-5.66,4.64,85.56,173.16,249.84,246.38,53.35,23.8,96.87,29.7,114.39,31.5,17.44,1.81,102.68,9.51,197.36-33.86,3.69-1.73,88.46-41.33,131.91-96.87,14.46-18.46,31.74-34.73,45.57-53.74,9.43-12.96,17.36-25.22,33.86-33.86,6.29-3.3,19.48-10.21,35.04-6.99,18.07,3.77,28.2,18.93,32.68,25.69,3.61,5.42,19.64,31.03,11.71,80.53-5.5,34.1-18.46,55.23-42.03,95.77,0,0-33.15,56.96-58.37,102.76-46.43,84.22-46.67,171.51-46.67,198.46-.39,162,108.11,287.94,112.11,286.06,1.57-.71-10.06-21.53-19.88-64.19-2.28-9.74-8.17-37.16-10.53-74.72-2.36-38.65-5.66-91.45,13.98-152.97,11.39-35.59,26.24-60.89,43.21-89.88,20.9-35.75,28.2-39.83,54.84-80.53,26.08-39.75,46.2-70.39,63.09-113.29,8.17-20.74,25.77-65.52,30.33-124.92,2.51-32.37,8.25-64.5,10.53-96.87.24-2.98,1.96-28.44,17.52-51.38,4.24-6.28,8.01-10.13,12.81-12.81,15.16-8.56,33.31-2.28,39.68,0,33.15,11.63,48.16,46.67,87.6,109.76,3.38,5.42,24.28,38.89,38.5,58.37,54.02,74,140.08,112.11,140.08,112.11,60.86,26.25,113.73,28.76,147.7,28.75,34.32-.01,88.11-2.59,149.76-29.66ZM1757.3,1559.46c-23.57,85.64-54.84,131.91-54.84,131.91-24.36,36.06-62.07,91.84-135.45,127.28-.29.14-.58.28-.87.42-49.98,23.91-108.23,23.91-158.21,0-.29-.14-.58-.28-.87-.42-73.38-35.43-111.09-91.21-135.45-127.28,0,0-31.27-46.27-54.84-131.91-2.75-10.06-7.54-28.83-1.18-50.2,1.96-6.52,7.54-24.51,24.51-36.22,9.11-6.29,19.56-9.43,36.22-10.53,33.15-2.12,56.8,6.44,77.07,11.71,37.42,9.73,60.01,16.72,89.88,19.35,20.57,1.81,38.19,1.91,43.76,1.91,5.57,0,23.18-.09,43.74-1.91,29.86-2.63,52.45-9.64,89.88-19.35,20.27-5.26,43.92-13.83,77.07-11.71,16.66,1.1,27.1,4.24,36.22,10.53,16.91,11.66,22.41,29.46,24.51,36.22,7.06,22.75,1.52,42.42-1.16,50.2Z"/>
</svg>
